<?xml version="1.0" encoding="UTF-8"?><svg xmlns="http://www.w3.org/2000/svg" xmlns:xlink="http://www.w3.org/1999/xlink" height="363.8" preserveAspectRatio="xMidYMid meet" version="1.0" viewBox="-2.7 -0.3 767.7 363.8" width="767.7" zoomAndPan="magnify"><g id="change1_1"><path d="M408,28c-3.4-9.1-8.4-17.7-16.4-23.3C387.6,2,383,0.4,378.2,0c-4.8-0.3-9.5,1-13.8,3c-8.4,4-14.9,11.7-19.1,19.9 c-4.6,8.9-6.9,18.7-7.8,28.7c-1.8,20.3,3.4,40.5,7.5,60.3c3.6,17.3,7.1,34.6,10.6,51.9c3.7,18.4,7.5,36.9,11.2,55.3 c3.6,17.5,7.1,35.1,10.8,52.6c0.7,3.5,1.5,7.1,2.2,10.6c0,0.8,0.3,1.6,0.7,2.3c0,0,0,0,0,0c0,0,0.1,0.1,0.1,0.1 c0.4,0.6,1.1,1.2,1.8,1.5c0.6,0.4,1.3,0.6,2,0.6c0.6,0.1,1.1,0,1.7-0.2c0.2-0.1,0.3-0.1,0.5-0.2c0.1,0,0.2-0.1,0.2-0.1 c0.2-0.1,0.3-0.2,0.5-0.3c0.1-0.1,0.2-0.1,0.3-0.2c0.2-0.1,0.4-0.3,0.5-0.5c0,0,0,0,0.1,0c0.8-0.8,1.3-1.8,1.4-3 c0-0.2,0.1-0.3,0.1-0.5c2.6-21.6,5.4-43.2,8.2-64.9c2.8-21.4,5.5-42.9,7.9-64.4c2.4-21.4,4.4-42.9,5.8-64.5 c0.7-10.4,1.5-20.9,1.4-31.3C412.8,47.1,411.4,37.2,408,28z M402.2,77.1c-1.1,21-2.9,41.9-5,62.8c-2.2,21-4.7,42-7.4,63 c-2.1,16.1-4.2,32.3-6.2,48.4c-1.4-6.8-2.8-13.6-4.2-20.3c-3.7-18-7.3-36-10.9-54c-3.5-17.5-7.1-35-10.7-52.4c-1.6-8-3.3-16-5-24 c-1.1-5.2-2.2-10.3-3.1-15.5c-0.5-2.5-0.9-5.1-1.2-7.7c-0.1-0.4-0.1-0.7-0.1-1.1c-0.1-0.6,0-0.1,0,0c-0.1-0.6-0.2-1.2-0.2-1.9 c-0.2-1.3-0.3-2.7-0.4-4c-0.5-5-0.6-10-0.4-15.1c0.1-2.3,0.3-4.6,0.6-6.9c0-0.1,0-0.3,0.1-0.4c0-0.1,0-0.2,0.1-0.3 c0.1-0.5,0.2-1.1,0.3-1.6c0.2-1.3,0.5-2.5,0.7-3.7c0.5-2.2,1.1-4.5,1.8-6.6c0.3-1,0.7-2.1,1.1-3.1c0.2-0.4,0.4-0.9,0.5-1.3 c0.1-0.1,0.4-1,0.5-1.2c1-2.1,2-4.1,3.2-6c0.5-0.9,1.1-1.7,1.7-2.6c0.2-0.2,1-1.2,0.4-0.5c0.4-0.4,0.7-0.9,1.1-1.3 c1.4-1.6,3-3.2,4.7-4.6c0.2-0.1,0.3-0.2,0.5-0.4c0,0,0,0,0.1,0c0.4-0.3,0.8-0.6,1.2-0.9c0.9-0.6,1.8-1.1,2.7-1.6 c0.4-0.2,0.9-0.4,1.3-0.7c0,0,0.1-0.1,0.2-0.1c-0.1,0-0.1,0.1-0.2,0.1c0.1,0,0.2-0.1,0.3-0.1c0.1,0,0.2-0.1,0.2-0.1c0,0,0.1,0,0.1,0 c1-0.4,2-0.7,3-0.9c0.5-0.1,0.9-0.2,1.4-0.3c0.2,0,0.4,0,0.5,0c1.1-0.1,2.2-0.1,3.3,0c0.1,0,0.1,0,0.2,0c0,0,0.1,0,0.2,0 c0.6,0.1,1.1,0.2,1.6,0.4c0.5,0.1,0.9,0.3,1.4,0.4c0.2,0.1,0.4,0.1,0.6,0.2c0.1,0,0.1,0,0.1,0c0,0,0,0,0,0c0.9,0.4,1.7,0.9,2.6,1.4 c0.4,0.3,0.8,0.5,1.2,0.8c0.2,0.1,0.3,0.3,0.5,0.4c0,0,0,0,0.1,0c0,0,0.1,0,0.1,0.1c1.6,1.3,3,2.8,4.4,4.4c0,0.1,0.2,0.2,0.3,0.4 c0,0.1,0.1,0.1,0.1,0.1c0.3,0.4,0.6,0.8,0.9,1.2c0.6,0.9,1.2,1.8,1.7,2.8c1.2,2,2.2,4.1,3.1,6.2c0,0,0,0,0,0 c0.1,0.3,0.2,0.6,0.3,0.9c0.2,0.5,0.4,1,0.6,1.5c0.4,1.1,0.8,2.2,1.1,3.4c0.7,2.2,1.2,4.4,1.7,6.7c0.2,1.1,0.4,2.2,0.6,3.3 c0.1,0.5,0.2,1.1,0.2,1.7c0,0,0,0,0,0.1c0,0.4,0.1,0.8,0.1,1.2C403.5,57.4,402.8,67.3,402.2,77.1z M370.1,11.4 C370.1,11.4,370.1,11.4,370.1,11.4c0.1,0,0.2-0.1,0.2-0.1C370.3,11.3,370.2,11.4,370.1,11.4z M64.7,190.7 C64.2,190.3,64.5,190.5,64.7,190.7L64.7,190.7z M32.5,175.1c0.1,0,0.2,0,0.3,0c0,0,0.1,0,0.1,0C32.5,175.1,32.3,175,32.5,175.1z M10.3,199.8c0-0.2,0-0.4-0.1-0.5c0,0,0,0,0,0C10.3,199.5,10.3,199.9,10.3,199.8z M209.2,354.7c0.1-1.4-0.3-2.8-1.4-3.8 c-2.9-2.6-5.1-5.8-7.5-8.8c-3.3-4.1-6.5-8.2-9.7-12.4c-0.2-0.2-0.4-0.5-0.5-0.7c0-0.1-0.1-0.1-0.2-0.2c-0.4-0.5-0.8-1-1.2-1.5 c-0.8-1-1.6-2.1-2.4-3.1c-1.6-2.1-3.1-4.1-4.7-6.2c-3.2-4.2-6.3-8.4-9.4-12.6c-12.4-16.7-24.4-33.6-37-50.2 c-12.3-16.2-25.2-32.1-38.6-47.4c-11.8-13.4-24.8-26.2-40.6-34.8c-7.6-4.1-15.7-7.3-24.4-8.1c-8.5-0.7-17.1,2-23.2,8.1 c-11.1,11.1-9.8,28.3-4.2,41.7c2.8,6.9,6.5,13.3,11.3,18.9c3,3.5,6.1,6.9,9.4,10.1c3.7,3.6,7.9,6.7,12.1,9.7 c16.3,11.9,33.1,23.1,50.1,33.9c17,10.8,34.2,21.2,51.4,31.6c17.1,10.4,34.3,20.8,51.1,31.7c4.1,2.6,8.2,5.3,12.2,8 c0.9,0.6,2.1,0.8,3.2,0.6c0.8-0.1,1.6-0.4,2.3-0.9c0.1-0.1,0.3-0.2,0.4-0.3c0.1-0.1,0.1-0.1,0.2-0.1c0,0,0,0,0,0 c0.3-0.3,0.6-0.6,0.8-1c0.3-0.5,0.4-1,0.5-1.5c0,0,0,0,0-0.1C209.2,355.1,209.2,354.9,209.2,354.7z M190.2,329.2c0,0,0-0.1-0.1-0.1 C190.1,329.1,190.2,329.1,190.2,329.2z M13.7,211.8c0,0,0.1,0.3,0.2,0.5C13.8,212,13.7,211.8,13.7,211.8z M106.5,287.8 c-16.8-10.4-33.4-21-49.6-32.3c-4.1-2.8-8.2-5.7-12.2-8.6c-2-1.5-4-2.9-6-4.4c-0.4-0.3-0.9-0.6-1.3-1c-0.1,0-0.3-0.2-0.4-0.3 c-0.1-0.1-0.3-0.2-0.4-0.3c-0.9-0.7-1.8-1.5-2.7-2.3c-3.5-3.2-6.7-6.7-9.9-10.3c-0.6-0.6-1.1-1.2-1.6-1.9c-0.2-0.3-0.5-0.6-0.7-0.9 c-0.1-0.1-0.1-0.1-0.2-0.2c-0.9-1.3-1.9-2.6-2.7-3.9c-1.8-2.9-3.5-5.9-4.9-9c0,0,0-0.1-0.1-0.1c0,0,0,0,0,0 c-0.2-0.4-0.3-0.8-0.5-1.2c-0.3-0.9-0.7-1.7-1-2.6c-0.5-1.6-1-3.2-1.4-4.9c-0.2-0.8-0.4-1.6-0.5-2.4c-0.1-0.4-0.2-0.8-0.2-1.3 c0,0,0,0,0,0c0,0,0-0.2-0.1-0.4c0-0.1,0-0.1,0-0.2c0,0,0-0.1,0-0.1c0,0,0,0,0,0c-0.2-1.6-0.3-3.2-0.3-4.9c0-0.8,0-1.5,0.1-2.3 c0-0.3,0.1-0.7,0.1-1c0-0.1,0-0.3,0.1-0.4c0.3-1.6,0.7-3.1,1.3-4.6c0-0.1,0.1-0.2,0.2-0.4c0.1-0.3,0.3-0.6,0.4-0.9 c0.4-0.7,0.8-1.4,1.2-2.1c0.2-0.3,0.4-0.6,0.7-1c0,0,0.1-0.1,0.1-0.1c0.6-0.7,1.2-1.3,1.8-2c0.3-0.3,0.6-0.5,0.8-0.8 c0.1-0.1,0.3-0.2,0.4-0.4c0.8-0.6,1.6-1.1,2.5-1.6c0.4-0.2,0.7-0.4,1.1-0.6c0.1,0,0.2-0.1,0.2-0.1c0,0,0.1,0,0.2-0.1 c0.9-0.3,1.7-0.6,2.6-0.8c0.4-0.1,0.9-0.2,1.3-0.3c0.1,0,0.3-0.1,0.4-0.1c0.9,0,1.8-0.2,2.7-0.2c0.9,0,1.7,0,2.6,0.1 c0.5,0,0.9,0.1,1.4,0.1c0.1,0,0.2,0,0.2,0c0,0,0.1,0,0.3,0c0.1,0,0.1,0,0.2,0c0,0-0.1,0-0.1,0c0,0,0,0,0,0c3.8,0.6,7.5,1.8,11.1,3.2 c0.1,0.1,0.3,0.1,0.4,0.2c0,0,0.1,0,0.1,0c0.5,0.2,0.9,0.4,1.4,0.6c0.9,0.4,1.8,0.9,2.7,1.3c1.7,0.9,3.5,1.8,5.1,2.8 c3.1,1.8,6.2,3.9,9.1,6c0.5,0.3,0.9,0.7,1.4,1c0.2,0.1,0.3,0.3,0.5,0.4c0,0-0.1,0-0.1-0.1c0,0,0.1,0.1,0.1,0.1 c1,0.8,1.9,1.5,2.9,2.3c1.7,1.4,3.4,2.9,5.1,4.5c3.4,3.1,6.7,6.5,9.9,9.9c6.4,6.8,12.3,13.9,18.3,21c6.5,7.7,12.8,15.4,19,23.3 c0.7,0.9,1.5,1.9,2.2,2.8c0,0,0,0,0.1,0.1c0,0,0,0,0,0.1c0.2,0.3,0.4,0.5,0.6,0.8c0.4,0.6,0.9,1.1,1.3,1.7c1.6,2,3.1,4.1,4.7,6.1 c3,4,6.1,8.1,9.1,12.1c6,8.2,12,16.4,18,24.6c8.2,11.2,16.4,22.3,24.9,33.3c-7.9-5-15.9-9.9-23.9-14.8 C140.2,308.3,123.3,298.2,106.5,287.8z M290,301.6c-2.5-8.2-4.8-16.5-7.1-24.7c-3-10.7-6.1-21.5-9.1-32.2 c-6.6-23.4-13-46.8-19.5-70.3c-4.6-16.8-8-34-12.4-50.8c-4.5-17.1-10.2-34.2-19.7-49.2c-8.5-13.4-20.5-26.4-36.5-30 c-6.8-1.5-14.4-1.7-21,0.9c-7.4,2.8-12.8,8.2-15.8,15.5c-4.1,10-2.5,21.5,0.5,31.6c3.3,10.8,7.9,21.4,12.7,31.6 c9.2,19.7,20.1,38.5,31.9,56.8c11.8,18.3,24.5,36.1,37,53.9c6.8,9.6,13.6,19.3,20.4,28.9c6.9,9.7,13.6,19.5,20.6,29.2 c3.2,4.4,5.9,9.1,9,13.5c0.1,0.2,0.3,0.3,0.4,0.5c1,1.3,2.7,2.1,4.4,2c0.7,0,1.4-0.3,2-0.7c0.4-0.3,0.8-0.6,1.1-1 c0.8-0.8,1.3-1.9,1.4-3c0,0,0-0.1,0-0.1c0,0,0-0.1,0-0.1C290.5,303,290.4,302.2,290,301.6z M250.1,244.2 c-12.6-17.8-25.2-35.5-37.4-53.5c-12-17.7-23.4-35.8-33.4-54.7c-2.5-4.7-4.9-9.5-7.2-14.4c-1.2-2.4-2.3-4.9-3.4-7.3 c-0.5-1.2-1.1-2.5-1.6-3.7c-0.2-0.5-0.5-1.1-0.7-1.7c-0.1-0.2-0.1-0.3-0.2-0.5c-0.1-0.1-0.3-0.7-0.3-0.8c-2.1-5.1-4.2-10.2-5.9-15.4 c-0.9-2.7-1.7-5.4-2.3-8.1c-0.3-1.3-0.5-2.6-0.8-3.9c0-0.1-0.1-0.5-0.1-0.6c0-0.2,0-0.4-0.1-0.5c-0.1-0.8-0.1-1.5-0.2-2.3 c-0.1-1.3-0.1-2.6,0-3.9c0-0.7,0.1-1.4,0.1-2.1c0-0.3,0.1-0.6,0.1-0.9c-0.1,1,0-0.1,0-0.2c0.3-1.8,0.8-3.6,1.4-5.3 c0-0.1,0.1-0.2,0.1-0.3c0.2-0.3,0.3-0.7,0.5-1c0.4-0.8,0.8-1.5,1.3-2.2c0.2-0.3,0.4-0.5,0.6-0.8c0-0.1,0.1-0.1,0.1-0.2 c0.5-0.6,1.1-1.2,1.6-1.8c0.2-0.2,0.5-0.5,0.7-0.7c0.1-0.1,0.2-0.1,0.3-0.2c0.6-0.4,1.1-0.8,1.7-1.2c0.6-0.3,1.1-0.6,1.7-0.9 c0.1,0,0.2-0.1,0.3-0.1c0,0-0.1,0-0.1,0c0.1,0,0.1,0,0.2-0.1c0.1,0,0.2-0.1,0.2-0.1c0.2-0.1,0.3-0.1,0.4-0.1 c0.1-0.1,0.3-0.1,0.4-0.2c1.4-0.5,2.9-0.9,4.4-1.1c0.1,0,0.1,0,0.2,0c0.3,0,0.5-0.1,0.8-0.1c0.8-0.1,1.6-0.1,2.5-0.1 c0.7,0,1.5,0,2.2,0.1c0.4,0,0.8,0.1,1.2,0.1c0.2,0,1,0.1,1.1,0.1c0.2,0,0.3,0,0.4,0.1c0.4,0.1,0.7,0.1,1.1,0.2 c0.8,0.2,1.7,0.4,2.5,0.6c1.6,0.4,3.1,1,4.7,1.6c0,0,0,0,0.1,0c0,0,0.1,0,0.1,0.1c0.3,0.1,0.7,0.3,1,0.5c0.8,0.4,1.6,0.8,2.3,1.2 c1.4,0.8,2.8,1.7,4.1,2.7c0,0,0,0,0,0c0,0,0.1,0.1,0.1,0.1c0.3,0.3,0.6,0.5,1,0.8c0.8,0.7,1.7,1.5,2.5,2.2c3,2.8,5.8,5.8,8.4,9.1 c0,0,0.1,0.1,0.1,0.2c0.1,0.1,0.2,0.3,0.3,0.3c0.3,0.4,0.6,0.8,0.9,1.3c0.6,0.8,1.2,1.7,1.8,2.6c1.2,1.7,2.3,3.5,3.4,5.3 c2.2,3.6,4.1,7.4,5.9,11.2c0.4,1,0.9,1.9,1.3,2.9c0.1,0.3,0.6,1.7,0.2,0.4c0.2,0.6,0.5,1.1,0.7,1.7c0.8,2,1.6,4,2.3,6 c1.5,4.1,2.8,8.2,4.1,12.4c4.9,16.5,8.2,33.3,12.3,50c2.6,10.3,5.5,20.5,8.4,30.7c3.2,11.4,6.3,22.9,9.5,34.3 c4,14.4,8.1,28.9,12.2,43.3c-0.4-0.6-0.8-1.2-1.2-1.8C263.9,263.4,256.9,253.8,250.1,244.2z M167.1,54.9 C167.1,54.9,167.1,54.9,167.1,54.9c0.3-0.1,0.5-0.2,0.7-0.2C167.9,54.7,167.8,54.7,167.1,54.9z M611.8,81.8c0,0.2,0,0.4,0,0.5 c0,0,0,0,0,0C611.7,81.6,611.8,81.6,611.8,81.8z M610,63.2C609.4,62.3,609.8,62.9,610,63.2L610,63.2z M572.3,176.5 c4.9-6.9,9.7-13.8,14.5-20.7c3.8-5.6,7.7-11.3,11.3-17.1c3.9-6.2,7.6-12.5,10.9-19c5.2-10.1,9.9-20.9,12-32.1 c2.1-11.2,1.7-23.2-4.3-33.2c-3.2-5.3-7.9-10-13.2-13.2c-5.6-3.3-12.1-4.9-18.6-5.2c-6.7-0.2-13.3,1.1-19.4,3.8 c-5.7,2.4-10.4,6.5-14.7,10.8c-8.5,8.7-15.1,19.1-20.2,30.1c-5.3,11.4-9.2,23.4-12.4,35.5c-3.1,11.7-5.7,23.5-8.5,35.3 c-1.4,6.1-3.1,12.2-4.6,18.4c-2,8.1-3.9,16.3-5.8,24.5c-3.7,16.3-7.7,32.5-12,48.6c-3.6,13.2-7.2,26.4-11.3,39.5 c-1.5,4.8-3,9.5-4.5,14.3c-0.4,0.9-0.5,2-0.2,3c0,0,0,0,0,0c0.3,1.1,0.9,2.1,1.7,2.8c0.1,0,0.1,0.1,0.2,0.1c0,0,0,0,0.1,0 c0.5,0.3,1,0.6,1.6,0.7c0.2,0,0.4,0.1,0.6,0.1c0.1,0,0.1,0,0.2,0c0.2,0,0.4,0,0.6,0c0.2,0,0.3,0,0.5,0c0.1,0,0.3,0,0.4-0.1 c0.1,0,0.3-0.1,0.4-0.1c0.2-0.1,0.4-0.2,0.7-0.2c0,0,0.1,0,0.1,0c0.8-0.4,1.4-0.9,1.9-1.6c0.1-0.1,0.2-0.2,0.2-0.3 c1.3-1.8,2.6-3.6,4-5.4c3-4,6-8,9-12c4.3-5.7,8.5-11.4,12.8-17.1c5.2-6.9,10.3-13.8,15.5-20.8c5.7-7.6,11.3-15.3,17-23 c5.8-7.9,11.6-15.8,17.3-23.7C561.4,191.7,566.9,184.1,572.3,176.5z M520.2,231.3c-10,13.5-20,27-30.1,40.4 c-0.2,0.3-0.4,0.5-0.6,0.8c0.5-1.5,0.9-3.1,1.4-4.6c4.4-15.4,8.6-30.8,12.4-46.4c3.9-16,7.2-32.1,11.2-48c3-11.9,5.8-23.7,8.6-35.6 c2.7-11.8,5.7-23.5,9.5-35c1-2.9,2-5.8,3.1-8.6c0.5-1.4,1.1-2.7,1.6-4c0,0,0-0.1,0.1-0.2c0,0,0,0,0,0c0.1-0.3,0.3-0.7,0.4-1 c0.3-0.8,0.7-1.5,1-2.3c2.4-5.4,5.2-10.7,8.4-15.6c0.7-1.1,1.4-2.2,2.2-3.2c0.4-0.6,0.8-1.1,1.2-1.7c0.2-0.3,0.4-0.6,0.6-0.8 c0.2-0.2,1.1-1.5,0.3-0.4c1.6-2.4,3.7-4.6,5.7-6.6c2-2.1,4.2-4.1,6.4-6c0,0,0,0,0.1,0c0,0,0,0,0,0c0.3-0.2,0.6-0.4,0.8-0.6 c0.6-0.4,1.1-0.8,1.7-1.1c1.1-0.7,2.5-1.6,3.8-2c0.1,0,0.3-0.1,0.4-0.1c0.3-0.1,0.7-0.3,1-0.4c0.7-0.2,1.3-0.5,2-0.7 c1.4-0.4,2.8-0.7,4.2-1c0.4-0.1,0.7-0.1,1.1-0.2c0,0,0,0,0,0c0,0,0,0,0,0c0.7-0.1,1.4-0.1,2.1-0.2c1.5-0.1,3.1-0.1,4.6,0 c0.7,0,1.4,0.1,2.1,0.2c0,0,0.1,0,0.1,0c0.3,0.1,0.7,0.1,1,0.2c1.5,0.3,3,0.6,4.4,1.1c0.7,0.2,1.3,0.5,2,0.7c0,0,0.1,0,0.1,0 c0.3,0.1,0.6,0.3,0.9,0.4c1.3,0.7,2.6,1.4,3.9,2.3c0.3,0.2,0.6,0.4,0.8,0.6c0,0,0,0,0,0c0,0,0.1,0.1,0.1,0.1 c0.5,0.4,1.1,0.9,1.6,1.4c1.1,1,2.1,2,3,3.1c0.2,0.2,0.4,0.5,0.6,0.8c0,0,0,0,0,0c0.4,0.5,0.7,1,1.1,1.6c0.7,1,1.3,2.1,1.9,3.2 c0.3,0.5,0.5,1.2,0.8,1.7c0,0,0-0.1-0.1-0.1c0,0,0,0,0,0c0.1,0.3,0.2,0.6,0.3,0.9c0.4,1.2,0.8,2.5,1.1,3.8c0.1,0.6,0.3,1.2,0.4,1.8 c0.1,0.3,0.1,0.6,0.1,0.9c0.1,1.3,0.2,2.6,0.3,3.9c0,1.3,0,2.5-0.1,3.8c0,0.6-0.1,1.3-0.1,1.9c0,0.5-0.2,1.1-0.2,1.7 c0,0.1,0,0.3,0,0.5c0,0,0,0,0,0c0,0,0,0,0,0c0,0,0,0,0,0c0,0.3-0.1,0.6-0.1,0.9c-0.1,0.6-0.2,1.3-0.3,1.9c-0.3,1.4-0.6,2.8-0.9,4.2 c-0.7,2.6-1.4,5.2-2.3,7.7c-0.4,1.3-0.9,2.5-1.4,3.8c-0.2,0.6-0.5,1.3-0.7,1.9c-0.1,0.3-0.3,0.6-0.4,0.9c0,0.1-0.1,0.1-0.1,0.2 c0,0,0,0.1-0.1,0.2c-6.1,14-14.1,27.1-22.6,39.7c-9.3,13.9-19,27.6-28.8,41.1C542.9,200.5,531.6,215.9,520.2,231.3z M752.7,200.2 c0.1,0.1,0.1,0.2,0.1,0.2c0,0,0,0,0,0C752.8,200.4,752.7,200.3,752.7,200.2z M754.3,210.5C754.3,210.4,754.3,210.4,754.3,210.5 C754.3,210.4,754.3,210.4,754.3,210.5C754.3,210.4,754.3,210.4,754.3,210.5z M754.9,186c-6.3-6.3-15-9.5-23.9-8.9 c-8.9,0.6-17.4,3.9-25.2,8.1c-7.6,4.1-14.6,9.3-21,15.1c-7.4,6.8-14,14.4-20.5,22c-11.1,12.9-21.8,26.1-32.5,39.3 c-11.7,14.4-23.2,28.9-34.8,43.4c-11,13.8-22.1,27.5-33.5,41c-2.5,3-5,5.9-7.5,8.9c0,0-0.1,0.1-0.1,0.1c-1.2,1.4-1.7,3.4-1.1,5.1 c0.2,0.7,0.6,1.3,1.2,1.8c0.4,0.3,0.8,0.6,1.3,0.9c0.7,0.4,1.4,0.6,2.2,0.6c1.1,0.1,2.2-0.2,3.1-0.9c17.2-10.1,34.4-20,51.6-30 c17.3-10.1,34.5-20.5,51.4-31.3c16.8-10.8,33.2-22.1,49.1-34.2c7.7-5.9,15.3-12,22.8-18.3c6-5,11.9-10.1,16.8-16.1 c5.4-6.6,9.5-14.1,10.1-22.7C765,201.1,761.1,192.2,754.9,186z M747.8,224.7c0,0-0.1,0.1-0.1,0.1 C747.1,225.5,747.6,224.8,747.8,224.7z M752.6,216.5c0,0,0,0.1,0,0.1C752.7,216.3,752.9,215.9,752.6,216.5z M754.3,209.9 c0,0.2,0,0.4,0,0.5c0,0,0,0,0,0c0,0,0,0,0,0.1c0,0,0,0.1,0,0.1c-0.1,0.9-0.1,0.2,0-0.1c-0.1,0.4-0.4,2.3-0.5,2.5 c-0.2,0.9-0.5,1.7-0.8,2.6c-0.1,0.4-0.4,0.8-0.5,1.2c-0.1,0.1-0.1,0.3-0.2,0.4c-0.4,0.8-0.8,1.6-1.2,2.4c-0.9,1.6-1.9,3.2-3,4.7 c-0.1,0.1-0.2,0.3-0.3,0.4c-0.3,0.2-0.6,0.8-0.9,1.1c-0.6,0.8-1.3,1.6-2,2.3c-2.6,2.9-5.3,5.5-8.2,8.1c-6.2,5.5-12.7,10.8-19.1,15.9 c-1.9,1.5-3.8,3-5.8,4.5c-0.2,0.1-0.3,0.3-0.5,0.4c-0.1,0.1-0.2,0.2-0.3,0.2c-0.5,0.4-1,0.7-1.5,1.1c-1,0.7-1.9,1.5-2.9,2.2 c-3.9,3-7.9,5.9-12,8.8c-8,5.7-16.1,11.3-24.3,16.7c-16.4,10.8-33.2,21.1-50.1,31.2c-12.9,7.6-25.8,15.1-38.7,22.6 c4.5-5.5,8.9-10.9,13.4-16.4c11.4-14.2,22.8-28.4,34.2-42.6c10.8-13.5,21.7-27,32.8-40.2c5.6-6.6,11.2-13.3,16.9-19.7 c3.2-3.6,6.6-7.2,10-10.6c1.8-1.7,3.6-3.4,5.5-5.1c0.9-0.7,1.7-1.5,2.6-2.2c0.3-0.2,0.6-0.5,0.9-0.7c-0.1,0.1-0.1,0.1,0.2-0.1 c0.2-0.2,0.4-0.3,0.6-0.5c3.1-2.3,6.3-4.5,9.6-6.4c1.8-1,3.6-2,5.4-2.9c0.9-0.4,1.7-0.8,2.6-1.2c0.2-0.1,0.5-0.2,0.7-0.3 c0.5-0.2,1-0.4,1.5-0.6c1.9-0.7,3.8-1.4,5.8-1.9c1-0.3,1.9-0.5,2.9-0.7c0.4-0.1,0.8-0.2,1.3-0.2c0.2,0,0.5-0.1,0.7-0.1 c1.9-0.2,3.7-0.3,5.6-0.2c0.4,0,0.9,0.1,1.3,0.1c0.2,0,0.3,0,0.5,0.1c1,0.2,1.9,0.4,2.8,0.7c0.4,0.1,0.8,0.2,1.1,0.4 c0.1,0,0.2,0.1,0.4,0.1c0,0,0.1,0,0.1,0.1c0.9,0.4,1.9,0.9,2.7,1.4c0.7,0.4,1.6,0.9,2.2,1.5c0.2,0.2,0.4,0.3,0.5,0.4 c0.4,0.4,0.8,0.7,1.2,1.1c0.7,0.6,1.3,1.3,1.9,2c0.1,0.1,0.2,0.2,0.3,0.3c0,0,0,0.1,0.1,0.1c0.3,0.4,0.6,0.9,0.9,1.4 c0.5,0.8,1,1.7,1.4,2.5c0,0.1,0.2,0.6,0.4,0.9c-0.1-0.2-0.1-0.4,0.1,0.1c0,0.1,0,0.1,0.1,0.2c0,0,0,0,0,0c0,0,0,0,0,0 c0.1,0.3,0.2,0.6,0.3,0.8c0.3,0.9,0.6,1.7,0.8,2.6c0.1,0.5,0.2,0.9,0.3,1.4c0,0.1,0,0.4,0.1,0.5c0,0,0,0.1,0,0.1 c0.1,0.9,0.1,1.7,0.1,2.6C754.4,209,754.4,209.4,754.3,209.9z"/></g></svg>