<?xml version="1.0" encoding="UTF-8" standalone="no"?><svg xmlns="http://www.w3.org/2000/svg" xmlns:xlink="http://www.w3.org/1999/xlink" fill="#000000" height="66.9" preserveAspectRatio="xMidYMid meet" version="1" viewBox="-0.6 -0.1 70.0 66.9" width="70" zoomAndPan="magnify"><g data-name="Layer 2"><g data-name="Layer 1" fill="#000000" id="change1_1"><path d="M18.29,66.86,11.86,54l5.33-2.66L23.62,64.2ZM12.88,54.31l5.75,11.53,4-2L16.85,52.33Z" fill="inherit"/><path d="M20.61,65.7,14.18,52.81l3-1.5L23.62,64.2Zm-5.4-12.55L21,64.68l1.65-.82L16.85,52.33Z" fill="inherit"/><path d="M15.23,52.49l-.14-.05a11,11,0,0,1-3.15-1.67,8.28,8.28,0,0,1-2.58-3.3,13,13,0,0,1-1.22-7.7l.54-.28a1.23,1.23,0,0,1,0-.19l.11-.72-1.19.59-.18.09L.19,42.88l0,.2c-.8,5.84,1.47,10.41,7,14l.19.12,7.25-3.62.34-.16.85-.43.36-.18Zm-7.88,3.8C2.33,53,.22,48.74.89,43.38l6.45-3.22.51-.25A14.52,14.52,0,0,0,8.9,48.22l.08.15a9,9,0,0,0,2.47,3,11.08,11.08,0,0,0,2.7,1.55l-.37.19Z" fill="inherit"/><path d="M46.05,50.22l-.21-.81A8.53,8.53,0,0,1,44.51,49h0a23.84,23.84,0,0,0-2.79-.72A39.22,39.22,0,0,0,24.34,49a49.65,49.65,0,0,0-9.25,3.41l-.51.25a16.92,16.92,0,0,1-2.64-1.92,12.26,12.26,0,0,1-1.81-2,9.76,9.76,0,0,1-.77-1.27,13,13,0,0,1-1.22-7.7l.54-.28c7-3.59,12-9.56,15-14a56.6,56.6,0,0,0,3.7-6.42c.48-1,.82-1.76,1-2.24l.05.06a6.84,6.84,0,0,1,.26-.87l-.56-.65-.21.55,0,0s0,0,0,.06c-.44,1.13-6.82,16.72-20.26,23.16l-.18.09,0,.21c0,.23-.06.46-.07.69a13.94,13.94,0,0,0-.08,1.56,12.69,12.69,0,0,0,1.64,6.5l.08.15a8.57,8.57,0,0,0,.52.81,12.8,12.8,0,0,0,1.95,2.17,15.53,15.53,0,0,0,2.33,1.74l.6.36.17.1h0l.19-.1.13-.07.85-.43c3.56-1.7,16.2-7,28.37-3.32h0c.42.13.83.27,1.25.42l.14,0,.53.19Z" fill="inherit"/><path d="M52.31,41.28A37.41,37.41,0,0,0,48.17,27a37.37,37.37,0,0,0-8.88-11.88c-3.36-2.8-6.46-3.71-8.74-2.58a5.15,5.15,0,0,0-2.41,2.78h0l-.21.55,0,0s0,0,0,.06a12.63,12.63,0,0,0-.53,3,20.29,20.29,0,0,0,0,2.07,37.73,37.73,0,0,0,4.14,14.24,37.53,37.53,0,0,0,8.89,11.88,16.57,16.57,0,0,0,1.32,1,13.54,13.54,0,0,0,2.42,1.39h0a8.44,8.44,0,0,0,1.39.47l.51.1a6.43,6.43,0,0,0,1,.08,4.63,4.63,0,0,0,2.1-.48C51.39,48.68,52.53,45.65,52.31,41.28Zm-3.54,7.86a4.42,4.42,0,0,1-2.93.27A8.53,8.53,0,0,1,44.51,49h0a14.92,14.92,0,0,1-3.62-2.32A36.61,36.61,0,0,1,32.17,35a36.59,36.59,0,0,1-4.06-13.94,14.77,14.77,0,0,1,.32-4.21,6.84,6.84,0,0,1,.26-.87,4.61,4.61,0,0,1,2.2-2.73c2-1,4.8-.12,7.91,2.48a36.73,36.73,0,0,1,8.69,11.63,36.82,36.82,0,0,1,4.06,13.94C51.75,45.37,50.76,48.14,48.77,49.14Z" fill="inherit"/><path d="M45.4,46.13a6.43,6.43,0,0,1-3.14-1c-3-1.72-6.14-5.5-8.44-10.12C31.26,29.9,30.18,24.6,31,21.19A4.46,4.46,0,0,1,33.17,18c1.72-.86,4.06-.17,6.57,1.93a27.73,27.73,0,0,1,6.6,8.81,28,28,0,0,1,3.07,10.58c.16,3.27-.7,5.55-2.42,6.41A3.57,3.57,0,0,1,45.4,46.13ZM34.5,34.69c2.24,4.49,5.28,8.15,8.14,9.8,1.1.63,2.69,1.25,4,.59s2.14-2.78,2-5.68a27.19,27.19,0,0,0-3-10.28,27.14,27.14,0,0,0-6.41-8.57C37,18.69,34.92,18,33.51,18.73a3.74,3.74,0,0,0-1.78,2.64C31,24.61,32,29.71,34.5,34.69Z" fill="inherit"/><path d="M43,36.14c-.16-.59-.35-1.18-.56-1.79,0,.06,0,.12,0,.18a2.76,2.76,0,0,1-.27,1.54c0,.12.07.24.1.35s.09.36.13.53v0c.74,3.07.74,5.77-.13,7.33a19,19,0,0,1-4.9-4.81l-.27-.37L37,38.86l0,0q-.33-.45-.63-.93c-.19-.28-.37-.58-.55-.88s-.44-.75-.65-1.13-.42-.78-.62-1.18-.42-.87-.61-1.31-.31-.71-.45-1.06A23.29,23.29,0,0,1,32.62,30c0-.1-.07-.19-.1-.28s-.06-.2-.08-.29-.07-.21-.1-.31l-.12-.45a16.7,16.7,0,0,1-.56-6.94c1.74.53,3.72,2.15,5.55,4.46l0,0h0c.18.24.37.48.55.73a3,3,0,0,1,1.29.71l.28.24c-.37-.56-.74-1.1-1.13-1.61-2.18-2.94-4.67-5-6.79-5.43l-.37-.08L31,21.2a16.74,16.74,0,0,0,.54,7.85c0,.1,0,.21.08.31A32.38,32.38,0,0,0,33.82,35c.41.82.84,1.61,1.3,2.37s.92,1.48,1.42,2.16h0l.19.26a19.38,19.38,0,0,0,5.52,5.32l.31.18.2-.29C44,43.24,44.07,39.92,43,36.14Z" fill="inherit"/><path d="M42.55,36.87l-.23-.45-.14-.28a.77.77,0,0,1-.3.27.88.88,0,0,1-.39.08l0,.09-.92.46h0L37,38.86l0,0q-.33-.45-.63-.93c-.19-.28-.37-.58-.55-.88s-.44-.75-.65-1.13-.42-.78-.62-1.18-.42-.87-.61-1.31-.31-.71-.45-1.06A23.29,23.29,0,0,1,32.62,30c0-.1-.07-.19-.1-.28l-.09-.29h0L36,27.71h0l.93-.46,0,.1a.68.68,0,0,1,.3-.28.92.92,0,0,1,.38-.08l-.36-.71h0l0-.05h0l-.33.16L32.22,28.7l-.69.35h0l.09.31A32.38,32.38,0,0,0,33.82,35c.41.82.84,1.61,1.3,2.37s.93,1.48,1.42,2.16h0l.19.26.69-.34,4.8-2.4.11-.06.12-.06.11,0Z" fill="inherit"/><path d="M42.09,30.47a10.65,10.65,0,0,0-2.51-3.35,4.1,4.1,0,0,0-1.34-.78,1.85,1.85,0,0,0-1-.08,1.09,1.09,0,0,0-.36.12A1.91,1.91,0,0,0,36,27.7h0a4.1,4.1,0,0,0-.1,1A10.21,10.21,0,0,0,37,33a9.32,9.32,0,0,0,3.22,3.86l.37.18h0a2.31,2.31,0,0,0,.91.21,1.54,1.54,0,0,0,.7-.16l.11-.06.11-.08a.39.39,0,0,0,.1-.08,1.68,1.68,0,0,0,.49-.73,3.93,3.93,0,0,0,.22-1.65A10.6,10.6,0,0,0,42.09,30.47Zm.4,4.06a2.76,2.76,0,0,1-.27,1.54.16.16,0,0,1,0,.07.77.77,0,0,1-.3.27.88.88,0,0,1-.39.08,1.92,1.92,0,0,1-.86-.3,8.49,8.49,0,0,1-2.93-3.53,8.05,8.05,0,0,1-1-4.78,1.43,1.43,0,0,1,.24-.54.68.68,0,0,1,.3-.28.92.92,0,0,1,.38-.08l.19,0a3,3,0,0,1,1.29.71l.28.24a10.49,10.49,0,0,1,2,2.86,9.88,9.88,0,0,1,1.07,3.54C42.48,34.41,42.49,34.47,42.49,34.53Z" fill="inherit"/><path d="M49.74,2.5A2.18,2.18,0,1,0,51.1,5.27,2.18,2.18,0,0,0,49.74,2.5ZM50.44,5a1.49,1.49,0,1,1-.92-1.89A1.48,1.48,0,0,1,50.44,5Z" fill="inherit"/><path d="M51.92,2.87a.37.37,0,0,1,.46-.23.37.37,0,0,1,.22.46.36.36,0,0,1-.46.22A.35.35,0,0,1,51.92,2.87Z" fill="inherit"/><path d="M49.74,2.5A2.18,2.18,0,1,0,51.1,5.27,2.18,2.18,0,0,0,49.74,2.5ZM50.44,5a1.49,1.49,0,1,1-.92-1.89A1.48,1.48,0,0,1,50.44,5Z" fill="inherit"/><path d="M52.6,3.1a.36.36,0,0,1-.46.22.35.35,0,0,1-.22-.45.37.37,0,0,1,.46-.23A.37.37,0,0,1,52.6,3.1Z" fill="inherit"/><path d="M52.44,1.51,48.32.1A1.79,1.79,0,0,0,46,1.22L44.61,5.34a1.82,1.82,0,0,0,1.12,2.3l4.13,1.41a1.81,1.81,0,0,0,2.29-1.12l1.41-4.12A1.8,1.8,0,0,0,52.44,1.51Zm.43,2.12-1.38,4A1.15,1.15,0,0,1,50,8.36L46,7a1.15,1.15,0,0,1-.71-1.46l1.38-4A1.15,1.15,0,0,1,48.14.79l4,1.38A1.14,1.14,0,0,1,52.87,3.63Z" fill="inherit"/><path d="M49.74,2.5A2.18,2.18,0,1,0,51.1,5.27,2.18,2.18,0,0,0,49.74,2.5ZM50.44,5a1.49,1.49,0,1,1-.92-1.89A1.48,1.48,0,0,1,50.44,5Z" fill="inherit"/><path d="M52.6,3.1a.36.36,0,0,1-.46.22.35.35,0,0,1-.22-.45.37.37,0,0,1,.46-.23A.37.37,0,0,1,52.6,3.1Z" fill="inherit"/><path d="M49.74,2.5A2.18,2.18,0,1,0,51.1,5.27,2.18,2.18,0,0,0,49.74,2.5ZM50.44,5a1.49,1.49,0,1,1-.92-1.89A1.48,1.48,0,0,1,50.44,5Z" fill="inherit"/><path d="M52.6,3.1a.36.36,0,0,1-.46.22.35.35,0,0,1-.22-.45.37.37,0,0,1,.46-.23A.37.37,0,0,1,52.6,3.1Z" fill="inherit"/><path d="M62.14,26.29l-2.23-3.64,1.49-1.06a5,5,0,0,0,.49-.38c.07-.3.25-1.08.36-1.76,0-.16.06-.44.1-.76.25-2.21.42-3,.93-3.06.18,0,.44,0,.66.4a10.31,10.31,0,0,1,.84,2.77l1.87-.9L69.42,23l-.27.2a19.13,19.13,0,0,1-2.52,1.55l-.08,0-2.63.65Zm-1.21-3.43,1.49,2.43,1.23-.63L66.33,24a17.35,17.35,0,0,0,2.1-1.27l-2.1-3.84-2.16,1-.07-.52a12.22,12.22,0,0,0-.69-2.71c-.13.57-.25,1.57-.3,2.07,0,.34-.07.62-.1.81-.15.87-.39,1.89-.4,1.93l0,.12-.09.08s-.34.29-.65.51Z" fill="inherit"/><path d="M66.88,48.42l-.2,0c-.2,0-4.88-.39-6.23-2.4a2.2,2.2,0,0,1-.24-2,2,2,0,0,1,1.15-1.32,3.62,3.62,0,0,1,2.45.06,3.7,3.7,0,0,1,1.28-2.27,1.71,1.71,0,0,1,1.5-.15,2.51,2.51,0,0,1,1.64,1.81A8.15,8.15,0,0,1,67,48.26Zm-4.5-5.17a1.74,1.74,0,0,0-.72.13,1.29,1.29,0,0,0-.72.86,1.41,1.41,0,0,0,.15,1.33c.9,1.35,4,1.92,5.44,2a7.58,7.58,0,0,0,1-5.27A1.79,1.79,0,0,0,66.35,41a1,1,0,0,0-.85.08,3.54,3.54,0,0,0-1,2.19l-.06.52-.48-.22A4.21,4.21,0,0,0,62.38,43.25Z" fill="inherit"/></g></g></svg>