<?xml version="1.0" encoding="UTF-8"?><svg xmlns="http://www.w3.org/2000/svg" xmlns:xlink="http://www.w3.org/1999/xlink" clip-rule="evenodd" fill-rule="evenodd" height="938.2" preserveAspectRatio="xMidYMid meet" stroke-linejoin="round" stroke-miterlimit="2" version="1.0" viewBox="152.5 530.9 1694.9 938.2" width="1694.9" zoomAndPan="magnify"><path d="M0 0H2000V2000H0z" fill="none"/><g id="change1_1"><path d="M1196.71,1037.69c-59.963,-28.36 -126.949,-44.22 -197.61,-44.22c-70.183,0 -136.74,15.646 -196.35,43.626c-69.479,-75.559 -169.14,-122.936 -279.779,-122.936c-178.415,-0 -328.277,123.214 -369.071,289.103c-1.371,5.577 1.234,11.37 6.315,14.046c108.39,57.074 231.829,89.392 362.756,89.392c12.793,-0 25.514,-0.309 38.158,-0.919c-4.502,13.058 -8.443,26.408 -11.784,39.993c-1.371,5.576 1.234,11.37 6.315,14.045c132.499,69.768 283.392,109.274 443.44,109.274c160.048,-0 310.941,-39.506 443.44,-109.274c5.081,-2.675 7.686,-8.469 6.314,-14.045c-3.345,-13.605 -7.293,-26.975 -11.814,-40.084c13.245,0.671 26.58,1.01 39.993,1.01c130.927,-0 254.366,-32.318 362.756,-89.392c5.081,-2.676 7.686,-8.469 6.315,-14.046c-40.794,-165.889 -190.656,-289.103 -369.071,-289.103c-110.925,-0 -210.815,47.623 -280.323,123.53Zm-2.556,26.55c-58.746,-29.288 -124.99,-45.77 -195.054,-45.77c-67.96,0 -132.328,15.507 -189.75,43.17c-0.996,1.056 -2.18,1.942 -3.512,2.606c-96.683,48.203 -173.097,131.101 -212.875,232.337c-0.811,2.065 -2.136,3.83 -3.798,5.168c-5,13.216 -9.376,26.725 -13.095,40.503l-0,-0c43.321,22.224 88.614,41.143 135.53,56.419c3.59,-32.375 19.249,-64.518 29.474,-95.193c2.182,-6.545 9.266,-10.088 15.811,-7.906c6.545,2.181 10.088,9.266 7.906,15.811c-10.2,30.6 -26.982,62.555 -28.784,94.863c83.426,24.627 171.728,37.846 263.093,37.846c92.827,-0 182.493,-13.645 267.09,-39.036c-2.14,-31.901 -18.637,-63.448 -28.712,-93.673c-2.181,-6.545 1.361,-13.63 7.906,-15.811c6.545,-2.182 13.63,1.361 15.811,7.906c10.089,30.267 25.469,61.964 29.325,93.907c45.542,-15.056 89.507,-33.534 131.61,-55.133c-4.198,-15.549 -9.231,-30.755 -15.039,-45.546c-0.017,-0.041 -0.033,-0.083 -0.05,-0.125c-5.127,-13.049 -10.863,-25.794 -17.174,-38.2l-0.287,-0.564l-0.274,-0.535l-0.024,-0.048c-0.47,-0.916 -0.943,-1.831 -1.422,-2.75l-0.061,-0.118l-0.252,-0.482l-0.246,-0.469l-0.082,-0.157l-0.26,-0.493l-0.245,-0.464l-0.06,-0.115l-0.286,-0.538c-0.098,-0.186 -0.197,-0.372 -0.296,-0.558l-0.261,-0.488l-0.117,-0.22l-0.218,-0.407l-0.224,-0.417l-0.133,-0.248l-0.242,-0.447l-0.186,-0.344l-0.142,-0.262l-0.264,-0.488l-0.177,-0.325l-0.135,-0.247l-0.252,-0.461l-0.17,-0.31l-0.184,-0.336l-0.208,-0.378l-0.178,-0.322l-0.224,-0.406l-0.144,-0.26l-0.205,-0.37l-0.247,-0.444l-0.329,-0.59l-0.242,-0.432l-0.219,-0.39l-0.151,-0.27l-0.196,-0.348l-0.216,-0.383l-0.209,-0.368l-0.115,-0.203l-0.254,-0.447l-0.232,-0.408l-0.351,-0.615l-0.228,-0.397l-0.264,-0.461l-0.12,-0.208l-0.188,-0.327l-0.249,-0.43l-0.194,-0.336l-0.097,-0.166l-0.291,-0.501l-0.22,-0.378l-0.37,-0.633l-0.218,-0.37l-0.306,-0.522l-0.089,-0.151l-0.185,-0.313l-0.276,-0.466l-0.181,-0.306l-0.087,-0.147l-0.318,-0.534l-0.211,-0.355l-0.387,-0.646l-0.21,-0.35l-0.345,-0.574l-0.06,-0.099l-0.184,-0.304l-0.298,-0.492l-0.17,-0.282l-0.084,-0.138l-0.337,-0.553l-0.205,-0.337l-0.4,-0.653l-0.206,-0.336l-0.381,-0.619l-0.031,-0.05l-0.186,-0.301l-0.316,-0.51l-0.161,-0.26l-0.086,-0.139l-0.349,-0.561l-0.202,-0.323l-0.411,-0.657l-0.205,-0.326l-0.417,-0.663l-0.191,-0.302l-0.328,-0.518l-0.155,-0.244l-0.093,-0.146l-0.355,-0.558l-0.201,-0.316l-0.42,-0.656l-0.206,-0.321l-0.424,-0.658l-0.195,-0.302l-0.336,-0.52l-0.149,-0.23l-0.104,-0.16l-0.356,-0.546l-0.204,-0.313l-0.426,-0.651l-0.21,-0.32l-0.429,-0.652l-0.201,-0.304l-0.34,-0.515l-0.146,-0.22l-0.118,-0.178l-0.352,-0.528l-0.208,-0.313l-0.43,-0.643l-0.217,-0.323l-0.432,-0.642l-0.209,-0.311l-0.34,-0.503l-0.146,-0.215l-0.134,-0.197l-0.344,-0.506l-0.216,-0.317l-0.432,-0.632l-0.225,-0.329l-0.432,-0.629l-0.221,-0.321l-0.336,-0.485l-0.148,-0.214l-0.151,-0.219l-0.333,-0.479l-0.226,-0.324l-0.431,-0.618l-0.237,-0.338l-0.431,-0.614l-0.234,-0.332l-0.327,-0.463l-0.152,-0.216l-0.172,-0.242l-0.318,-0.448l-0.238,-0.335l-0.429,-0.602l-0.25,-0.349l-0.427,-0.596l-0.25,-0.347l-0.314,-0.436l-0.16,-0.222l-0.192,-0.266l-0.301,-0.414l-0.244,-0.337l-0.056,-0.076l-0.377,-0.519l-0.265,-0.362l-0.423,-0.577l-0.266,-0.363l-0.297,-0.403l-0.172,-0.233l-0.214,-0.29l-0.28,-0.378l-0.253,-0.342l-0.106,-0.142l-0.33,-0.443l-0.281,-0.378l-0.416,-0.556l-0.285,-0.381l-0.276,-0.366l-0.186,-0.248l-0.236,-0.312l-0.258,-0.341l-0.263,-0.348l-0.153,-0.201l-0.284,-0.375l-0.3,-0.394l-0.408,-0.534l-0.306,-0.399l-0.248,-0.324l-0.206,-0.267l-0.259,-0.336l-0.232,-0.301l-0.276,-0.357l-0.196,-0.253l-0.241,-0.311l-0.32,-0.412l-0.399,-0.512l-0.326,-0.417l-0.217,-0.277l-0.23,-0.293l-0.281,-0.358l-0.205,-0.26l-0.29,-0.367l-0.237,-0.3l-0.199,-0.252l-0.342,-0.431l-0.392,-0.492l-0.345,-0.433l-0.18,-0.225l-0.258,-0.322l-0.305,-0.379l-0.176,-0.22l-0.305,-0.379l-0.275,-0.34l-0.16,-0.198l-0.354,-0.437c-0.132,-0.163 -0.264,-0.325 -0.395,-0.487l-0.364,-0.447l-0.137,-0.167l-0.292,-0.358l-0.327,-0.4l-0.146,-0.177l-0.323,-0.393l-0.31,-0.377l-0.122,-0.147l-0.366,-0.443c-0.134,-0.161 -0.267,-0.322 -0.4,-0.483l-0.382,-0.46l-0.086,-0.103l-0.335,-0.401l-0.349,-0.419l-0.113,-0.134l-0.343,-0.409l-0.344,-0.409l-0.084,-0.1l-0.38,-0.45c-0.135,-0.16 -0.27,-0.319 -0.405,-0.479l-0.4,-0.472l-0.026,-0.03l-0.385,-0.454l-0.372,-0.435l-0.079,-0.092l-0.364,-0.426l-0.375,-0.437l-0.048,-0.056c-0.668,-0.778 -1.34,-1.554 -2.018,-2.332l-0.043,-0.049l-0.388,-0.445l-0.404,-0.462l-0.013,-0.014c-0.686,-0.782 -1.374,-1.562 -2.068,-2.343l-0.005,-0.005c-37.068,-41.683 -81.976,-76.256 -132.396,-101.394l-0.012,-0.006Zm522.476,178.607c35.493,-11.88 69.804,-26.32 102.722,-43.105c-41.393,-150.16 -179.064,-260.582 -342.319,-260.582c-101.127,-0 -192.435,42.375 -257.124,110.314c92.973,50.564 166.739,132.058 207.439,230.616c16.424,1.068 32.992,1.611 49.685,1.611c74.83,-0 147.133,-10.904 215.408,-31.211c-2.201,-25.204 -15.201,-50.101 -23.166,-73.997c-2.182,-6.544 1.361,-13.629 7.906,-15.811c6.545,-2.182 13.629,1.361 15.811,7.906c7.983,23.948 19.938,48.999 23.638,74.259Zm-937.15,-194.017c-64.658,-67.566 -155.705,-109.67 -256.509,-109.67c-163.255,-0 -300.926,110.422 -342.319,260.582c32.918,16.785 67.229,31.225 102.722,43.105c3.7,-25.26 15.655,-50.311 23.638,-74.259c2.182,-6.545 9.266,-10.088 15.811,-7.906c6.545,2.182 10.088,9.267 7.906,15.811c-7.965,23.896 -20.965,48.793 -23.166,73.997c68.275,20.307 140.578,31.211 215.408,31.211c16.065,-0 32.015,-0.503 47.833,-1.493c40.862,-99.022 115.098,-180.83 208.676,-231.378Zm219.62,-517.934c-109.734,0 -198.824,89.09 -198.824,198.824c-0,109.734 89.09,198.824 198.824,198.824c109.734,0 198.824,-89.09 198.824,-198.824c0,-109.734 -89.09,-198.824 -198.824,-198.824Zm-0,25c95.936,0 173.824,77.888 173.824,173.824c0,95.936 -77.888,173.824 -173.824,173.824c-95.936,0 -173.824,-77.888 -173.824,-173.824c-0,-95.936 77.888,-173.824 173.824,-173.824Zm477.933,-19.025c-90.774,0 -164.471,73.698 -164.471,164.472c0,90.774 73.697,164.471 164.471,164.471c90.774,-0 164.472,-73.697 164.472,-164.471c-0,-90.774 -73.698,-164.472 -164.472,-164.472Zm-954.062,0c-90.774,0 -164.472,73.698 -164.472,164.472c0,90.774 73.698,164.471 164.472,164.471c90.774,-0 164.471,-73.697 164.471,-164.471c-0,-90.774 -73.697,-164.472 -164.471,-164.472Zm954.062,25c76.977,0 139.472,62.495 139.472,139.472c-0,76.976 -62.495,139.471 -139.472,139.471c-76.976,-0 -139.471,-62.495 -139.471,-139.471c0,-76.977 62.495,-139.472 139.471,-139.472Zm-954.062,0c76.976,0 139.471,62.495 139.471,139.472c-0,76.976 -62.495,139.471 -139.471,139.471c-76.977,-0 -139.472,-62.495 -139.472,-139.471c0,-76.977 62.495,-139.472 139.472,-139.472Zm421.019,46.55c-12.102,6.051 -32.073,18.81 -46.133,33.926c-11.023,11.85 -18.205,25.309 -18.205,38.163c-0,6.899 5.601,12.5 12.5,12.5c6.899,0 12.5,-5.601 12.5,-12.5c-0,-7.316 5.236,-14.391 11.51,-21.136c11.875,-12.766 28.787,-23.482 39.008,-28.592c6.171,-3.085 8.676,-10.6 5.59,-16.771c-3.085,-6.17 -10.6,-8.675 -16.77,-5.59Zm487.063,-8.075c-10.043,5.022 -26.614,15.618 -38.284,28.163c-9.429,10.137 -15.465,21.701 -15.465,32.696c-0,6.899 5.601,12.5 12.5,12.5c6.899,0 12.5,-5.601 12.5,-12.5c-0,-5.458 4.089,-10.636 8.77,-15.669c9.485,-10.196 22.997,-18.748 31.16,-22.829c6.17,-3.085 8.675,-10.6 5.59,-16.77c-3.085,-6.171 -10.6,-8.676 -16.771,-5.591Zm-933.989,0c-10.043,5.022 -26.615,15.618 -38.284,28.163c-9.429,10.137 -15.466,21.701 -15.466,32.696c0,6.899 5.602,12.5 12.5,12.5c6.899,0 12.5,-5.601 12.5,-12.5c0,-5.458 4.09,-10.636 8.771,-15.669c9.484,-10.196 22.997,-18.748 31.16,-22.829c6.17,-3.085 8.675,-10.6 5.59,-16.77c-3.086,-6.171 -10.6,-8.676 -16.771,-5.591Z"/></g></svg>